<svg width="817" height="268" viewBox="0 0 817 268" fill="none" xmlns="http://www.w3.org/2000/svg">
<path d="M336.604 197.17C335.499 197.17 334.604 196.275 334.604 195.17V102.936C334.604 101.832 335.499 100.936 336.604 100.936H348.282C349.237 100.936 350.059 101.612 350.244 102.549L350.921 105.986C351.259 107.698 353.554 108.242 354.797 107.017C356.39 105.448 358.216 104.004 360.275 102.684C363.859 100.444 368.474 99.3235 374.119 99.3235C380.391 99.3235 385.991 100.847 390.919 103.893C395.847 106.94 399.745 111.106 402.613 116.393C405.48 121.68 406.914 127.683 406.914 134.403C406.914 141.124 405.48 147.127 402.613 152.414C399.745 157.611 395.847 161.732 390.919 164.779C385.991 167.736 380.391 169.214 374.119 169.214C369.101 169.214 364.71 168.273 360.947 166.392C359.183 165.51 357.577 164.461 356.128 163.244C354.622 161.98 351.807 162.96 351.807 164.927V195.17C351.807 196.275 350.912 197.17 349.807 197.17H336.604ZM370.49 154.161C375.956 154.161 380.48 152.324 384.065 148.65C387.649 144.976 389.441 140.227 389.441 134.403C389.441 128.579 387.649 123.785 384.065 120.022C380.48 116.259 375.956 114.377 370.49 114.377C364.934 114.377 360.365 116.259 356.78 120.022C353.286 123.696 351.539 128.445 351.539 134.269C351.539 140.093 353.286 144.887 356.78 148.65C360.365 152.324 364.934 154.161 370.49 154.161Z" fill="#0C0C0C"/>
<path d="M424.282 167.601C423.177 167.601 422.282 166.706 422.282 165.601V72.8296C422.282 71.725 423.177 70.8296 424.282 70.8296H437.486C438.59 70.8296 439.486 71.725 439.486 72.8296V165.601C439.486 166.706 438.59 167.601 437.486 167.601H424.282Z" fill="#0C0C0C"/>
<path d="M489.456 169.214C482.736 169.214 476.777 167.781 471.58 164.913C466.383 162.046 462.306 158.014 459.349 152.817C456.392 147.62 454.914 141.616 454.914 134.806C454.914 127.907 456.348 121.769 459.215 116.393C462.172 111.017 466.204 106.85 471.311 103.893C476.508 100.847 482.601 99.3235 489.591 99.3235C496.132 99.3235 501.911 100.757 506.929 103.624C511.947 106.492 515.844 110.434 518.622 115.452C521.489 120.38 522.923 125.891 522.923 131.984C522.923 132.97 522.878 134 522.789 135.075C522.789 135.57 522.779 136.073 522.76 136.586C522.722 137.631 521.847 138.435 520.802 138.435H474.126C472.967 138.435 472.041 139.42 472.22 140.565C472.875 144.759 474.588 148.126 477.36 150.666C480.675 153.623 484.662 155.102 489.322 155.102C492.816 155.102 495.728 154.34 498.058 152.817C500.103 151.454 501.699 149.771 502.848 147.768C503.235 147.092 503.932 146.634 504.711 146.634H518.224C519.562 146.634 520.523 147.924 520.032 149.169C518.757 152.404 516.943 155.412 514.59 158.193C511.723 161.598 508.138 164.286 503.837 166.257C499.626 168.229 494.832 169.214 489.456 169.214ZM489.591 113.302C485.379 113.302 481.661 114.511 478.435 116.931C475.753 118.868 473.876 121.672 472.805 125.343C472.454 126.544 473.406 127.683 474.657 127.683H503.324C504.477 127.683 505.404 126.707 505.206 125.572C504.609 122.157 503.078 119.367 500.612 117.199C497.655 114.601 493.981 113.302 489.591 113.302Z" fill="#0C0C0C"/>
<path d="M530.404 167.601C528.771 167.601 527.826 165.749 528.786 164.427L549.822 135.444C550.33 134.743 550.33 133.795 549.822 133.094L528.786 104.111C527.826 102.789 528.771 100.936 530.404 100.936H543.867C544.512 100.936 545.118 101.248 545.493 101.772L560.197 122.311C560.997 123.428 562.659 123.425 563.454 122.305L578.033 101.778C578.408 101.25 579.016 100.936 579.663 100.936H593.243C594.879 100.936 595.823 102.794 594.859 104.115L573.712 133.09C573.199 133.792 573.199 134.745 573.712 135.448L594.859 164.422C595.823 165.744 594.879 167.601 593.243 167.601H579.663C579.016 167.601 578.408 167.288 578.033 166.759L563.454 146.233C562.659 145.113 560.997 145.11 560.197 146.227L545.493 166.766C545.118 167.29 544.512 167.601 543.867 167.601H530.404Z" fill="#0C0C0C"/>
<path d="M636.584 169.214C630.132 169.214 624.308 167.736 619.111 164.779C614.004 161.822 609.927 157.745 606.88 152.548C603.923 147.261 602.445 141.168 602.445 134.269C602.445 127.369 603.968 121.321 607.014 116.124C610.061 110.838 614.138 106.716 619.245 103.759C624.442 100.802 630.267 99.3235 636.718 99.3235C643.08 99.3235 648.814 100.802 653.922 103.759C659.119 106.716 663.196 110.838 666.153 116.124C669.199 121.321 670.723 127.369 670.723 134.269C670.723 141.168 669.199 147.261 666.153 152.548C663.196 157.745 659.119 161.822 653.922 164.779C648.725 167.736 642.945 169.214 636.584 169.214ZM636.584 154.295C641.064 154.295 644.962 152.638 648.277 149.322C651.592 145.917 653.25 140.899 653.25 134.269C653.25 127.638 651.592 122.665 648.277 119.35C644.962 115.945 641.109 114.242 636.718 114.242C632.148 114.242 628.206 115.945 624.89 119.35C621.665 122.665 620.052 127.638 620.052 134.269C620.052 140.899 621.665 145.917 624.89 149.322C628.206 152.638 632.103 154.295 636.584 154.295Z" fill="#0C0C0C"/>
<path fill-rule="evenodd" clip-rule="evenodd" d="M223.34 157.681C223.341 157.681 223.341 157.681 223.341 157.681C239.029 157.681 252.135 170.793 252.135 187.454H270.046C270.046 161.336 249.35 139.769 223.341 139.769C223.155 139.769 222.97 139.77 222.785 139.773C190.49 139.47 164.189 112.785 164.189 79.6445H146.277C146.277 111.702 165.405 139.355 192.837 151.339C182.888 160.119 176.636 173.099 176.636 187.454H194.547C194.547 170.968 207.38 157.957 222.847 157.685C223.012 157.686 223.176 157.687 223.34 157.687V157.681ZM286.674 124.117C282.473 119.812 277.846 115.931 272.861 112.547C278.949 103.101 282.492 91.8061 282.492 79.6445H300.403C300.403 96.1538 295.332 111.492 286.674 124.117Z" fill="#FF8E26"/>
<path fill-rule="evenodd" clip-rule="evenodd" d="M223.34 109.417C207.653 109.417 194.547 96.3049 194.547 79.6445H176.636C176.636 105.762 197.331 127.328 223.34 127.329C255.889 127.329 282.492 154.129 282.492 187.459H300.403C300.403 155.4 281.274 127.747 253.84 115.763C263.793 106.983 270.046 94.0015 270.046 79.6445H252.135C252.135 96.3052 239.029 109.417 223.341 109.417C223.341 109.417 223.341 109.417 223.34 109.417ZM160.007 142.987C164.208 147.292 168.835 151.173 173.82 154.557C167.732 164.003 164.189 175.298 164.189 187.459H146.277C146.277 170.95 151.348 155.612 160.007 142.987Z" fill="#F62121"/>
</svg>
