<svg width="817" height="268" viewBox="0 0 817 268" fill="none" xmlns="http://www.w3.org/2000/svg">
<path fill-rule="evenodd" clip-rule="evenodd" d="M219.935 141.162C186.632 141.162 159.534 114.044 159.534 80L142 80C142 112.715 161.614 140.666 189.647 152.565C179.79 161.119 173.556 173.739 173.556 187.815L191.09 187.815C191.09 171.733 204.127 158.695 220.209 158.695C236.292 158.695 249.329 171.733 249.329 187.815L266.863 187.815C266.863 162.049 245.975 141.162 220.209 141.162C220.118 141.162 220.026 141.162 219.935 141.162L219.935 141.162ZM272.858 110.752C277.709 114.145 282.222 117.994 286.337 122.238C289.888 116.797 297.945 103.646 297.945 80.0001L280.411 80.0001C280.411 96.4107 275.746 105.979 272.858 110.752Z" fill="#FF8E26"/>
<path fill-rule="evenodd" clip-rule="evenodd" d="M169.772 157.51C164.921 154.117 160.408 150.268 156.293 146.024C152.742 151.463 144.684 164.615 144.684 188.263L162.218 188.263C162.218 171.851 166.884 162.282 169.772 157.51ZM222.694 127.101C255.997 127.101 283.095 154.22 283.095 188.263L300.629 188.263C300.629 155.549 281.016 127.598 252.983 115.699C262.841 107.145 269.075 94.5246 269.075 80.4484L251.541 80.4484C251.541 96.5306 238.504 109.568 222.421 109.568C206.339 109.568 193.302 96.5306 193.302 80.4484L175.768 80.4484C175.768 106.214 196.655 127.102 222.421 127.102C222.512 127.102 222.603 127.101 222.694 127.101L222.694 127.101Z" fill="#F72121"/>
<path d="M342 197.341C340.895 197.341 340 196.445 340 195.341V103.107C340 102.002 340.895 101.107 342 101.107H353.678C354.633 101.107 355.455 101.782 355.64 102.72L356.318 106.156C356.656 107.869 358.951 108.412 360.194 107.187C361.786 105.618 363.612 104.174 365.671 102.854C369.256 100.614 373.87 99.4939 379.515 99.4939C385.787 99.4939 391.388 101.017 396.316 104.064C401.244 107.11 405.142 111.277 408.009 116.563C410.876 121.85 412.31 127.853 412.31 134.574C412.31 141.294 410.876 147.297 408.009 152.584C405.142 157.781 401.244 161.903 396.316 164.949C391.388 167.906 385.787 169.385 379.515 169.385C374.497 169.385 370.107 168.444 366.343 166.562C364.58 165.68 362.973 164.631 361.524 163.414C360.018 162.15 357.204 163.131 357.204 165.097V195.341C357.204 196.445 356.308 197.341 355.204 197.341H342ZM375.886 154.331C381.352 154.331 385.877 152.494 389.461 148.821C393.045 145.147 394.837 140.398 394.837 134.574C394.837 128.749 393.045 123.956 389.461 120.192C385.877 116.429 381.352 114.547 375.886 114.547C370.331 114.547 365.761 116.429 362.177 120.192C358.682 123.866 356.935 128.615 356.935 134.439C356.935 140.263 358.682 145.057 362.177 148.821C365.761 152.494 370.331 154.331 375.886 154.331Z" fill="#0C0C0C"/>
<path d="M429.678 167.772C428.574 167.772 427.678 166.876 427.678 165.772V73C427.678 71.8954 428.574 71 429.678 71H442.882C443.987 71 444.882 71.8954 444.882 73V165.772C444.882 166.876 443.987 167.772 442.882 167.772H429.678Z" fill="#0C0C0C"/>
<path d="M494.853 169.385C488.132 169.385 482.174 167.951 476.977 165.084C471.78 162.216 467.703 158.184 464.746 152.987C461.789 147.79 460.31 141.787 460.31 134.977C460.31 128.077 461.744 121.94 464.611 116.563C467.568 111.187 471.601 107.021 476.708 104.064C481.905 101.017 487.998 99.4939 494.987 99.4939C501.528 99.4939 507.308 100.928 512.325 103.795C517.343 106.662 521.241 110.605 524.019 115.623C526.886 120.551 528.32 126.061 528.32 132.154C528.32 133.14 528.275 134.17 528.185 135.246C528.185 135.74 528.176 136.244 528.157 136.757C528.118 137.801 527.244 138.606 526.199 138.606H479.523C478.364 138.606 477.438 139.591 477.617 140.735C478.272 144.929 479.985 148.296 482.756 150.837C486.071 153.794 490.059 155.272 494.718 155.272C498.213 155.272 501.125 154.51 503.455 152.987C505.499 151.624 507.096 149.941 508.244 147.938C508.632 147.263 509.329 146.805 510.107 146.805H523.621C524.959 146.805 525.919 148.095 525.428 149.34C524.154 152.574 522.34 155.582 519.986 158.363C517.119 161.768 513.535 164.456 509.234 166.428C505.023 168.399 500.229 169.385 494.853 169.385ZM494.987 113.472C490.776 113.472 487.057 114.682 483.831 117.101C481.149 119.038 479.273 121.842 478.201 125.514C477.851 126.714 478.803 127.853 480.053 127.853H508.721C509.873 127.853 510.8 126.877 510.602 125.742C510.006 122.328 508.475 119.537 506.008 117.37C503.051 114.771 499.378 113.472 494.987 113.472Z" fill="#0C0C0C"/>
<path d="M535.801 167.772C534.167 167.772 533.223 165.919 534.182 164.597L555.218 135.614C555.727 134.913 555.727 133.965 555.218 133.264L534.182 104.282C533.223 102.959 534.167 101.107 535.801 101.107H549.264C549.909 101.107 550.514 101.418 550.89 101.943L565.594 122.481C566.394 123.598 568.055 123.595 568.851 122.475L583.429 101.949C583.804 101.421 584.412 101.107 585.06 101.107H598.64C600.276 101.107 601.22 102.964 600.255 104.286L579.108 133.26C578.596 133.963 578.596 134.916 579.108 135.618L600.255 164.593C601.22 165.914 600.276 167.772 598.64 167.772H585.06C584.412 167.772 583.804 167.458 583.429 166.93L568.851 146.403C568.055 145.283 566.394 145.28 565.594 146.397L550.89 166.936C550.514 167.461 549.909 167.772 549.264 167.772H535.801Z" fill="#0C0C0C"/>
<path d="M641.98 169.385C635.529 169.385 629.704 167.906 624.507 164.949C619.4 161.992 615.323 157.915 612.277 152.718C609.32 147.432 607.841 141.339 607.841 134.439C607.841 127.54 609.364 121.492 612.411 116.295C615.457 111.008 619.534 106.886 624.642 103.929C629.839 100.972 635.663 99.4939 642.115 99.4939C648.476 99.4939 654.211 100.972 659.318 103.929C664.515 106.886 668.592 111.008 671.549 116.295C674.596 121.492 676.119 127.54 676.119 134.439C676.119 141.339 674.596 147.432 671.549 152.718C668.592 157.915 664.515 161.992 659.318 164.949C654.121 167.906 648.342 169.385 641.98 169.385ZM641.98 154.466C646.46 154.466 650.358 152.808 653.673 149.493C656.989 146.088 658.646 141.07 658.646 134.439C658.646 127.809 656.989 122.836 653.673 119.52C650.358 116.115 646.505 114.413 642.115 114.413C637.545 114.413 633.602 116.115 630.287 119.52C627.061 122.836 625.448 127.809 625.448 134.439C625.448 141.07 627.061 146.088 630.287 149.493C633.602 152.808 637.5 154.466 641.98 154.466Z" fill="#0C0C0C"/>
</svg>
